<?xml version="1.0" encoding="UTF-8"?>
<svg width="190px" height="18px" viewBox="0 0 190 18" version="1.1" xmlns="http://www.w3.org/2000/svg" xmlns:xlink="http://www.w3.org/1999/xlink">
    <title>modshopLogo</title>
    <defs>
        <path d="M26.136,17.184 L26.136,8.208 L28.992,14.52 L31.488,14.52 L34.344,8.208 L34.344,17.184 L39.024,17.184 L39.024,0.144 L33.936,0.144 L30.24,8.16 L26.568,0.144 L21.456,0.144 L21.456,17.184 L26.136,17.184 Z M53.632,17.328 C54.912,17.328 56.08,17.092 57.136,16.62 C58.192,16.148 59.108,15.508 59.884,14.7 C60.66,13.892 61.26,12.976 61.684,11.952 C62.108,10.928 62.32,9.856 62.32,8.736 C62.32,7.648 62.116,6.588 61.708,5.556 C61.3,4.524 60.72,3.592 59.968,2.76 C59.216,1.928 58.312,1.268 57.256,0.78 C56.2,0.292 55.024,0.048 53.728,0.048 C52.464,0.048 51.3,0.28 50.236,0.744 C49.172,1.208 48.252,1.844 47.476,2.652 C46.7,3.46 46.096,4.376 45.664,5.4 C45.232,6.424 45.016,7.504 45.016,8.64 C45.016,9.744 45.22,10.812 45.628,11.844 C46.036,12.876 46.62,13.804 47.38,14.628 C48.14,15.452 49.048,16.108 50.104,16.596 C51.16,17.084 52.336,17.328 53.632,17.328 Z M53.68,13.176 C53.008,13.176 52.428,13.052 51.94,12.804 C51.452,12.556 51.048,12.22 50.728,11.796 C50.408,11.372 50.168,10.892 50.008,10.356 C49.848,9.82 49.768,9.264 49.768,8.688 C49.768,8.128 49.844,7.58 49.996,7.044 C50.148,6.508 50.384,6.028 50.704,5.604 C51.024,5.18 51.428,4.84 51.916,4.584 C52.404,4.328 52.984,4.2 53.656,4.2 C54.312,4.2 54.888,4.32 55.384,4.56 C55.88,4.8 56.288,5.132 56.608,5.556 C56.928,5.98 57.168,6.456 57.328,6.984 C57.488,7.512 57.568,8.064 57.568,8.64 C57.568,9.2 57.492,9.748 57.34,10.284 C57.188,10.82 56.956,11.308 56.644,11.748 C56.332,12.188 55.928,12.536 55.432,12.792 C54.936,13.048 54.352,13.176 53.68,13.176 Z M74.864,17.184 C76.592,17.184 78.1,16.832 79.388,16.128 C80.676,15.424 81.676,14.432 82.388,13.152 C83.1,11.872 83.456,10.368 83.456,8.64 C83.456,7.072 83.132,5.644 82.484,4.356 C81.836,3.068 80.876,2.044 79.604,1.284 C78.332,0.524 76.752,0.144 74.864,0.144 L74.864,0.144 L68.312,0.144 L68.312,17.184 L74.864,17.184 Z M74.864,13.104 L72.992,13.104 L72.992,4.224 L74.864,4.224 C75.664,4.224 76.352,4.408 76.928,4.776 C77.504,5.144 77.944,5.66 78.248,6.324 C78.552,6.988 78.704,7.76 78.704,8.64 C78.704,9.488 78.552,10.252 78.248,10.932 C77.944,11.612 77.508,12.144 76.94,12.528 C76.372,12.912 75.68,13.104 74.864,13.104 L74.864,13.104 Z M95.616,17.4 C96.416,17.4 97.2,17.308 97.968,17.124 C98.736,16.94 99.432,16.64 100.056,16.224 C100.68,15.808 101.176,15.252 101.544,14.556 C101.912,13.86 102.096,13 102.096,11.976 C102.096,10.904 101.888,10.044 101.472,9.396 C101.056,8.748 100.464,8.216 99.696,7.8 C98.928,7.384 98.016,7.016 96.96,6.696 C96.304,6.488 95.74,6.312 95.268,6.168 C94.796,6.024 94.432,5.864 94.176,5.688 C93.92,5.512 93.792,5.28 93.792,4.992 C93.792,4.688 93.92,4.472 94.176,4.344 C94.432,4.216 94.76,4.152 95.16,4.152 C95.672,4.152 96.192,4.232 96.72,4.392 C97.248,4.552 97.736,4.732 98.184,4.932 C98.632,5.132 98.992,5.312 99.264,5.472 C99.536,5.632 99.672,5.712 99.672,5.712 L99.672,5.712 L101.688,1.848 C101.176,1.592 100.58,1.32 99.9,1.032 C99.22,0.744 98.492,0.5 97.716,0.3 C96.94,0.1 96.136,-2.27373675e-13 95.304,-2.27373675e-13 C94.184,-2.27373675e-13 93.14,0.22 92.172,0.66 C91.204,1.1 90.424,1.744 89.832,2.592 C89.24,3.44 88.944,4.496 88.944,5.76 C88.944,6.592 89.096,7.3 89.4,7.884 C89.704,8.468 90.176,8.972 90.816,9.396 C91.456,9.82 92.272,10.2 93.264,10.536 C93.952,10.76 94.58,10.956 95.148,11.124 C95.716,11.292 96.176,11.468 96.528,11.652 C96.88,11.836 97.056,12.096 97.056,12.432 C97.056,12.656 96.956,12.836 96.756,12.972 C96.556,13.108 96.2,13.176 95.688,13.176 C95.032,13.176 94.38,13.08 93.732,12.888 C93.084,12.696 92.496,12.48 91.968,12.24 C91.44,12 91.016,11.784 90.696,11.592 C90.376,11.4 90.216,11.304 90.216,11.304 L90.216,11.304 L88.2,15.408 C88.888,15.808 89.648,16.156 90.48,16.452 C91.312,16.748 92.172,16.98 93.06,17.148 C93.948,17.316 94.8,17.4 95.616,17.4 Z M112.84,17.184 L112.84,10.512 L118.552,10.512 L118.552,17.184 L123.232,17.184 L123.232,0.144 L118.552,0.144 L118.552,6.432 L112.84,6.432 L112.84,0.144 L108.16,0.144 L108.16,17.184 L112.84,17.184 Z M137.84,17.328 C139.12,17.328 140.288,17.092 141.344,16.62 C142.4,16.148 143.316,15.508 144.092,14.7 C144.868,13.892 145.468,12.976 145.892,11.952 C146.316,10.928 146.528,9.856 146.528,8.736 C146.528,7.648 146.324,6.588 145.916,5.556 C145.508,4.524 144.928,3.592 144.176,2.76 C143.424,1.928 142.52,1.268 141.464,0.78 C140.408,0.292 139.232,0.048 137.936,0.048 C136.672,0.048 135.508,0.28 134.444,0.744 C133.38,1.208 132.46,1.844 131.684,2.652 C130.908,3.46 130.304,4.376 129.872,5.4 C129.44,6.424 129.224,7.504 129.224,8.64 C129.224,9.744 129.428,10.812 129.836,11.844 C130.244,12.876 130.828,13.804 131.588,14.628 C132.348,15.452 133.256,16.108 134.312,16.596 C135.368,17.084 136.544,17.328 137.84,17.328 Z M137.888,13.176 C137.216,13.176 136.636,13.052 136.148,12.804 C135.66,12.556 135.256,12.22 134.936,11.796 C134.616,11.372 134.376,10.892 134.216,10.356 C134.056,9.82 133.976,9.264 133.976,8.688 C133.976,8.128 134.052,7.58 134.204,7.044 C134.356,6.508 134.592,6.028 134.912,5.604 C135.232,5.18 135.636,4.84 136.124,4.584 C136.612,4.328 137.192,4.2 137.864,4.2 C138.52,4.2 139.096,4.32 139.592,4.56 C140.088,4.8 140.496,5.132 140.816,5.556 C141.136,5.98 141.376,6.456 141.536,6.984 C141.696,7.512 141.776,8.064 141.776,8.64 C141.776,9.2 141.7,9.748 141.548,10.284 C141.396,10.82 141.164,11.308 140.852,11.748 C140.54,12.188 140.136,12.536 139.64,12.792 C139.144,13.048 138.56,13.176 137.888,13.176 Z M157.2,17.184 L157.2,11.952 L159.984,11.952 C161.104,11.952 162.084,11.668 162.924,11.1 C163.764,10.532 164.42,9.8 164.892,8.904 C165.364,8.008 165.6,7.056 165.6,6.048 C165.6,5.328 165.46,4.616 165.18,3.912 C164.9,3.208 164.504,2.572 163.992,2.004 C163.48,1.436 162.872,0.984 162.168,0.648 C161.464,0.312 160.696,0.144 159.864,0.144 L159.864,0.144 L152.52,0.144 L152.52,17.184 L157.2,17.184 Z M159.672,7.872 L157.2,7.872 L157.2,4.224 L159.552,4.224 C159.744,4.224 159.94,4.276 160.14,4.38 C160.34,4.484 160.508,4.668 160.644,4.932 C160.78,5.196 160.848,5.568 160.848,6.048 C160.848,6.496 160.788,6.856 160.668,7.128 C160.548,7.4 160.4,7.592 160.224,7.704 C160.048,7.816 159.864,7.872 159.672,7.872 L159.672,7.872 Z" id="path-1"></path>
    </defs>
    <g id="Page-1" stroke="none" stroke-width="1" fill="none" fill-rule="evenodd">
        <g id="modshopMain" transform="translate(-64.000000, -19.000000)">
            <g id="modshopLogo" transform="translate(64.000000, 19.000000)">
                <g id="MODSHOP" fill-rule="nonzero">
                    <use fill="#FAFAFA" xlink:href="#path-1"></use>
                    <use fill="#D34742" xlink:href="#path-1"></use>
                </g>
                <g id="Group-2-Copy-4" transform="translate(0.000000, 2.184000)">
                    <circle id="Oval" fill="#483D69" cx="6" cy="6" r="6"></circle>
                    <circle id="Oval-Copy" fill="#FFFFFF" cx="6" cy="6" r="4"></circle>
                    <circle id="Oval-Copy-2" fill="#D34742" cx="6" cy="6" r="2"></circle>
                </g>
                <g id="Group-2-Copy-5" transform="translate(178.000000, 2.184000)">
                    <circle id="Oval" fill="#483D69" cx="6" cy="6" r="6"></circle>
                    <circle id="Oval-Copy" fill="#FFFFFF" cx="6" cy="6" r="4"></circle>
                    <circle id="Oval-Copy-2" fill="#D34742" cx="6" cy="6" r="2"></circle>
                </g>
            </g>
        </g>
    </g>
</svg>